<?xml version="1.0" encoding="UTF-8"?>
<svg width="178px" height="45px" viewBox="0 0 178 45" version="1.1" xmlns="http://www.w3.org/2000/svg" xmlns:xlink="http://www.w3.org/1999/xlink">
    <title>logo</title>
    <g id="Symbols" stroke="none" stroke-width="1" fill="none" fill-rule="evenodd">
        <g id="Header" transform="translate(-50.000000, -28.000000)">
            <g id="Group" transform="translate(50.000000, 28.000000)">
                <polygon id="Fill-1" fill="#DB0632" points="22.8213 -0.0001 19.3593 16.3739 2.5713 16.3739 0.0003 28.3859 16.8193 28.3859 13.3323 44.8749 25.6163 44.8749 29.1033 28.3859 45.8663 28.3859 48.4383 16.3739 31.6433 16.3739 35.1053 -0.0001"></polygon>
                <path d="M172.8138,5.6552 L172.2808,5.6552 L172.2808,4.2622 C172.3988,4.2332 172.6068,4.2032 172.9028,4.2032 C173.6148,4.2032 173.9398,4.4992 173.9398,4.9442 C173.9398,5.4482 173.4368,5.6552 172.8138,5.6552 L172.8138,5.6552 Z M174.1478,6.0112 L174.1478,5.9512 C174.7408,5.7742 175.1558,5.3592 175.1558,4.8252 C175.1558,4.3512 174.9478,3.9662 174.6808,3.7592 C174.3258,3.5512 173.9108,3.4032 172.9918,3.4032 C172.1918,3.4032 171.5698,3.4622 171.1258,3.5512 L171.1258,8.4112 L172.2518,8.4112 L172.2518,6.4552 L172.7848,6.4552 C173.4068,6.4552 173.7038,6.6932 173.7928,7.2262 C173.9398,7.7892 174.0288,8.2332 174.1768,8.4112 L175.3918,8.4112 C175.2738,8.2332 175.1848,7.9372 175.0368,7.1962 C174.8888,6.5442 174.6218,6.1892 174.1478,6.0112 L174.1478,6.0112 Z M173.0508,9.7452 C170.8588,9.7452 169.2578,8.0262 169.2578,5.8632 C169.2578,3.7292 170.8588,1.9812 173.0218,1.9812 C175.1848,1.9812 176.7548,3.7292 176.7548,5.8922 C176.7548,8.0262 175.1848,9.7452 173.0508,9.7452 L173.0508,9.7452 Z M173.0218,1.0032 C170.2358,1.0032 168.0128,3.1662 168.0128,5.8632 C168.0128,8.6182 170.2358,10.7822 173.0218,10.7822 C175.8368,10.7822 178.0008,8.6182 178.0008,5.8632 C178.0008,3.1662 175.8368,1.0032 173.0218,1.0032 L173.0218,1.0032 Z M117.8348,0.0002 L105.5508,0.0002 L96.0628,44.8752 L122.8948,44.8752 L125.3948,33.1922 L110.8168,33.1922 L117.8348,0.0002 Z M153.5788,15.4182 C153.3978,17.0462 152.6668,18.3262 151.9558,19.2162 C151.2148,20.1432 150.0838,20.6702 148.8968,20.6682057 L142.9238,20.6572 L144.8228,11.6822 L151.4358,11.6822 C152.1478,11.6822 152.8218,12.0452 153.1798,12.6602 C153.5038,13.2172 153.7278,14.0812 153.5788,15.4182 L153.5788,15.4182 Z M154.4568,0.0002 L135.0078,0.0002 L125.5198,44.8752 L137.8038,44.8752 L140.4548,32.3402 L147.9378,32.3402 L147.9528,32.3402 L147.9638,32.3402 C148.6028,32.3362 162.0038,32.0682 164.6098,16.0452 C167.1168,0.6272 156.5868,0.0002 154.4568,0.0002 L154.4568,0.0002 Z M25.6168,44.8752 L37.9008,44.8752 L41.3878,28.3852 L29.1038,28.3852 L25.6168,44.8752 Z M80.4428,28.6362 L94.8818,28.6362 L97.1918,17.8482 L82.7248,17.8482 L84.0278,11.6822 L100.2068,11.6822 L102.7078,0.0002 L74.2138,0.0002 L64.7258,44.8752 L93.1868,44.8752 L95.6878,33.1922 L79.4798,33.1922 L80.4428,28.6362 Z M35.1058,0.0002 L31.6438,16.3742 L43.9278,16.3742 L47.3898,0.0002 L35.1058,0.0002 Z M59.1718,0.0002 L55.7098,16.3742 L48.4388,16.3742 L45.8668,28.3852 L53.1698,28.3852 L49.6838,44.8752 L61.9678,44.8752 L71.4568,0.0002 L59.1718,0.0002 Z" id="Fill-2" fill="#099845"></path>
            </g>
        </g>
    </g>
</svg>